name GIL12_fast2.mot
datacolumns 153
datarows 4
range 0.49166670 0.51666671
endheader

                time	           pelvis_tx	           pelvis_ty	           pelvis_tz	         pelvis_tilt	         pelvis_list	     pelvis_rotation	       hip_flexion_r	     hip_adduction_r	      hip_rotation_r	        knee_angle_r	       ankle_angle_r	    subtalar_angle_r	         mtp_angle_r	       hip_flexion_l	     hip_adduction_l	      hip_rotation_l	        knee_angle_l	       ankle_angle_l	    subtalar_angle_l	         mtp_angle_l	    lumbar_extension	      lumbar_bending	     lumbar_rotation	     ground_force_vx	     ground_force_vy	     ground_force_vz	     ground_force_px	     ground_force_py	     ground_force_pz	     ground_force_vx	     ground_force_vy	     ground_force_vz	     ground_force_px	     ground_force_py	     ground_force_pz	     ground_torque_x	     ground_torque_y	     ground_torque_z	     ground_torque_x	     ground_torque_y	     ground_torque_z	    ground_marker_px	    ground_marker_py	    ground_marker_pz	    ground_marker_px	    ground_marker_py	    ground_marker_pz	    ground_marker_px	    ground_marker_py	    ground_marker_pz	    ground_marker_px	    ground_marker_py	    ground_marker_pz	    ground_marker_px	    ground_marker_py	    ground_marker_pz	    ground_marker_px	    ground_marker_py	    ground_marker_pz	    ground_marker_px	    ground_marker_py	    ground_marker_pz	    ground_marker_px	    ground_marker_py	    ground_marker_pz	    ground_marker_px	    ground_marker_py	    ground_marker_pz	    ground_marker_px	    ground_marker_py	    ground_marker_pz	    ground_marker_px	    ground_marker_py	    ground_marker_pz	    ground_marker_px	    ground_marker_py	    ground_marker_pz	    ground_marker_px	    ground_marker_py	    ground_marker_pz	    ground_marker_px	    ground_marker_py	    ground_marker_pz	    ground_marker_px	    ground_marker_py	    ground_marker_pz	    ground_marker_px	    ground_marker_py	    ground_marker_pz	    ground_marker_px	    ground_marker_py	    ground_marker_pz	    ground_marker_px	    ground_marker_py	    ground_marker_pz	    ground_marker_px	    ground_marker_py	    ground_marker_pz	    ground_marker_px	    ground_marker_py	    ground_marker_pz	    ground_marker_px	    ground_marker_py	    ground_marker_pz	    ground_marker_px	    ground_marker_py	    ground_marker_pz	    ground_marker_px	    ground_marker_py	    ground_marker_pz	    ground_marker_px	    ground_marker_py	    ground_marker_pz	    ground_marker_px	    ground_marker_py	    ground_marker_pz	    ground_marker_px	    ground_marker_py	    ground_marker_pz	    ground_marker_px	    ground_marker_py	    ground_marker_pz	    ground_marker_px	    ground_marker_py	    ground_marker_pz	    ground_marker_px	    ground_marker_py	    ground_marker_pz	    ground_marker_px	    ground_marker_py	    ground_marker_pz	    ground_marker_px	    ground_marker_py	    ground_marker_pz	    ground_marker_px	    ground_marker_py	    ground_marker_pz	    ground_marker_px	    ground_marker_py	    ground_marker_pz	    ground_marker_px	    ground_marker_py	    ground_marker_pz	    ground_marker_px	    ground_marker_py	    ground_marker_pz	    ground_marker_px	    ground_marker_py	    ground_marker_pz	    ground_marker_px	    ground_marker_py	    ground_marker_pz	
          0.49166670	          1.16687858	          0.65644443	         -0.28875995	          4.86224365	          3.72913146	         -4.97857189	        -24.10808182	         -7.25359583	         -9.13186455	        -32.42210007	        -16.32154083	          0.00000000	          0.00000000	         27.36597824	          1.07699311	         -7.15695858	        -28.76858902	         -3.66104865	          0.00000000	          0.00000000	        -16.50712395	         -9.97658539	          5.87135363	          7.43425824	          9.72121484	         -0.46529056	          0.79215472	          0.00000000	         -0.23755551	        -73.43324488	        337.17041320	         24.86020709	          1.30697449	          0.00000000	         -0.37651868	          0.00000000	         -0.03057440	          0.00000000	          0.00000000	          0.40452563	          0.00000000	          1.11678267	          0.58170015	         -0.29405272	          1.11742949	          0.59153742	         -0.23786744	          1.12848830	          0.59782177	         -0.35462159	          1.01480186	          0.30580068	         -0.22436927	          1.28862393	          0.34090352	         -0.34755701	          0.77822232	          0.12601908	         -0.21648496	          1.30428302	          0.05537612	         -0.36892805	          1.16687858	          0.65644443	         -0.28875995	          1.15851998	          0.65169454	         -0.20051351	          1.17523718	          0.66119432	         -0.37700641	          1.02789950	          0.67487997	         -0.25738734	          1.03542852	          0.67329645	         -0.34179378	          1.00558162	          0.31122571	         -0.17963050	          1.28854537	          0.33953527	         -0.39553741	          1.02209520	          0.30043519	         -0.27118081	          1.29128003	          0.34219465	         -0.29862052	          0.77276844	          0.13459592	         -0.18456408	          1.29538524	          0.05722365	         -0.40013164	          0.77500194	          0.13479502	         -0.24334669	          1.30446124	          0.05088596	         -0.33535677	          1.10937333	          0.98959625	         -0.31679317	          1.20580387	          0.92632699	         -0.27291027	          1.20203567	          0.91754913	         -0.36408398	          1.18911767	          0.93612367	         -0.31099495	          1.23412120	          0.80075979	         -0.30548972	          1.16205537	          0.33969989	         -0.22441271	          1.30450439	          0.43653482	         -0.45053399	          1.11029720	          0.42041397	         -0.19484249	          1.27163792	          0.48676881	         -0.37247401	          1.06788611	          0.34394422	         -0.19442937	          1.31071448	          0.41430593	         -0.35026947	          0.86114585	          0.18475750	         -0.11344810	          1.39299643	          0.17090672	         -0.33497360	          0.89442831	          0.21265261	         -0.17884439	          1.33022332	          0.21694295	         -0.35329548	          0.79795468	          0.04743801	         -0.22627582	          1.38945746	          0.03848235	         -0.37471220	
          0.50000000	          1.17987776	          0.65816259	         -0.28946263	          4.99234438	          4.32689667	         -5.03479719	        -22.28152084	         -8.15410137	        -10.06053257	        -36.09774017	        -18.72973442	          0.00000000	          0.00000000	         26.47904205	          1.76601183	         -8.04823971	        -29.61265564	         -2.17479920	          0.00000000	          0.00000000	        -16.76369476	        -10.92528248	          5.71268082	          0.00000000	          0.00000000	          0.00000000	          0.79780811	          0.00000000	         -0.22332816	        -72.44881717	        353.11533934	         27.66850358	          1.30989600	          0.00000000	         -0.37681128	          0.00000000	          0.00000000	          0.00000000	          0.00000000	          0.44929932	          0.00000000	          1.13025904	          0.58338892	         -0.29563510	          1.13045812	          0.59262997	         -0.23934904	          1.14176512	          0.60013318	         -0.35600743	          1.03711212	          0.30335996	         -0.22354019	          1.29801309	          0.34104079	         -0.34813738	          0.79503196	          0.13122578	         -0.21756844	          1.30508733	          0.05500783	         -0.36895293	          1.17987776	          0.65816259	         -0.28946263	          1.17132139	          0.65248466	         -0.20118399	          1.18843400	          0.66384053	         -0.37774128	          1.04104888	          0.67598814	         -0.25775430	          1.04857385	          0.67514181	         -0.34215963	          1.02706087	          0.30903691	         -0.17901215	          1.29764140	          0.33935961	         -0.39610651	          1.04653513	          0.29612234	         -0.27039072	          1.30052733	          0.34174499	         -0.29962629	          0.78929359	          0.14039589	         -0.18586306	          1.29609966	          0.05705356	         -0.40011844	          0.79300684	          0.13937117	         -0.24472469	          1.30469549	          0.05088291	         -0.33534470	          1.12253499	          0.99159378	         -0.31889245	          1.21940672	          0.92827100	         -0.27458724	          1.21573901	          0.91896909	         -0.36553437	          1.20233309	          0.93774402	         -0.31255510	          1.24779284	          0.80252916	         -0.30630407	          1.18370283	          0.34129450	         -0.22186084	          1.31479478	          0.43575767	         -0.45193031	          1.12885976	          0.41992003	         -0.19366029	          1.28357017	          0.48633051	         -0.37391406	          1.08943450	          0.34195465	         -0.19329156	          1.32113814	          0.41331232	         -0.35170349	          0.87781739	          0.18864417	         -0.11378772	          1.39754105	          0.16782980	         -0.33563194	          0.91386020	          0.21343376	         -0.17835923	          1.33593881	          0.21568467	         -0.35385022	          0.80953252	          0.05030414	         -0.22572152	          1.39005840	          0.03774840	         -0.37501025	
          0.50833338	          1.19263077	          0.66016948	         -0.29001182	          5.08619595	          4.88763571	         -5.16987467	        -20.25363159	         -9.02632523	        -11.12188053	        -39.69359589	        -20.10300636	          0.00000000	          0.00000000	         25.42012787	          2.37226105	         -8.75715160	        -30.07906914	         -0.72163147	          0.00000000	          0.00000000	        -16.84661293	        -11.76998234	          5.47472525	          0.00000000	          0.00000000	          0.00000000	          0.80162555	          0.00000000	         -0.22016490	        -69.48815734	        363.14463565	         30.02849730	          1.31242542	          0.00000000	         -0.37711566	          0.00000000	          0.00000000	          0.00000000	          0.00000000	          0.49166748	          0.00000000	          1.14338565	          0.58540994	         -0.29712147	          1.14313161	          0.59409636	         -0.24069278	          1.15483713	          0.60271585	         -0.35723463	          1.05999005	          0.30157235	         -0.22251181	          1.30621302	          0.34094632	         -0.34877253	          0.81338072	          0.13635457	         -0.21898693	          1.30560517	          0.05472678	         -0.36900243	          1.19263077	          0.66016948	         -0.29001182	          1.18376458	          0.65364081	         -0.20173891	          1.20149684	          0.66669810	         -0.37828472	          1.05392826	          0.67744702	         -0.25833175	          1.06158686	          0.67741221	         -0.34272143	          1.04887056	          0.30748251	         -0.17826897	          1.30566335	          0.33907807	         -0.39673302	          1.07116187	          0.29232258	         -0.26911798	          1.30893373	          0.34082440	         -0.30121890	          0.80726421	          0.14615510	         -0.18754192	          1.29657435	          0.05694700	         -0.40014347	          0.81129038	          0.14517622	         -0.24648562	          1.30481851	          0.05095547	         -0.33540165	          1.13535547	          0.99373388	         -0.32077131	          1.23237824	          0.93055946	         -0.27586451	          1.22911406	          0.92075878	         -0.36662319	          1.21523130	          0.93975991	         -0.31378338	          1.26104462	          0.80468249	         -0.30667821	          1.20532918	          0.34374413	         -0.21848436	          1.32447803	          0.43499780	         -0.45314643	          1.14716971	          0.41995639	         -0.19220456	          1.29488099	          0.48582277	         -0.37505069	          1.11063504	          0.34065226	         -0.19169450	          1.33077776	          0.41211039	         -0.35333905	          0.89537454	          0.19288194	         -0.11439719	          1.40129399	          0.16505079	         -0.33618081	          0.93364084	          0.21496764	         -0.17807464	          1.34084058	          0.21464831	         -0.35434318	          0.82401240	          0.05380595	         -0.22475037	          1.39044130	          0.03731905	         -0.37529141	
          0.51666671	          1.20513916	          0.66244310	         -0.29043880	          5.14866638	          5.37273073	         -5.35961533	        -18.07300186	         -9.80969715	        -12.26010895	        -43.11488342	        -20.43088341	          0.00000000	          0.00000000	         24.20508194	          2.88634276	         -9.20896339	        -30.19626999	          0.62248129	          0.00000000	          0.00000000	        -16.84296608	        -12.52672958	          5.13999462	          0.00000000	          0.00000000	          0.00000000	          0.80433539	          0.00000000	         -0.22097514	        -65.55120633	        367.68528675	         31.94006775	          1.31494519	          0.00000000	         -0.37742114	          0.00000000	          0.00000000	          0.00000000	          0.00000000	          0.51881592	          0.00000000	          1.15613353	          0.58772254	         -0.29841995	          1.15548277	          0.59593856	         -0.24186337	          1.16768074	          0.60550046	         -0.35828117	          1.08326924	          0.30065444	         -0.22131464	          1.31327963	          0.34069157	         -0.34941784	          0.83316058	          0.14127363	         -0.22069155	          1.30591130	          0.05451804	         -0.36905849	          1.20513916	          0.66244310	         -0.29043880	          1.19589520	          0.65519661	         -0.20221211	          1.21438324	          0.66968960	         -0.37866548	          1.06655192	          0.67922801	         -0.25909817	          1.07443762	          0.68006742	         -0.34346151	          1.07090461	          0.30673248	         -0.17742646	          1.31269777	          0.33876643	         -0.39737570	          1.09589851	          0.28933081	         -0.26733267	          1.31631577	          0.33987701	         -0.30295676	          0.82658708	          0.15171091	         -0.18954508	          1.29688370	          0.05688706	         -0.40018952	          0.83112353	          0.15070866	         -0.24864113	          1.30502534	          0.05112519	         -0.33546895	          1.14788556	          0.99610597	         -0.32242033	          1.24447310	          0.93316174	         -0.27669606	          1.24187851	          0.92282581	         -0.36722785	          1.22779071	          0.94215113	         -0.31465277	          1.27329326	          0.80709225	         -0.30642912	          1.22677886	          0.34714919	         -0.21448138	          1.33364260	          0.43432185	         -0.45411703	          1.16529763	          0.42086408	         -0.19070736	          1.30516660	          0.48543933	         -0.37590027	          1.13150156	          0.34031880	         -0.18975230	          1.33943689	          0.41107807	         -0.35480830	          0.91381341	          0.19739453	         -0.11527138	          1.40433800	          0.16259399	         -0.33658826	          0.95383215	          0.21764581	         -0.17844290	          1.34484911	          0.21371368	         -0.35482290	          0.84145248	          0.05771547	         -0.22339468	          1.39067233	          0.03706929	         -0.37554008	
